<svg width="32" height="32" viewBox="0 0 32 32" fill="none" xmlns="http://www.w3.org/2000/svg">
  <!-- Background circle -->
  <circle cx="16" cy="16" r="16" fill="#3B82F6"/>
  
  <!-- People/Leads icon -->
  <g fill="white">
    <!-- Main person -->
    <circle cx="16" cy="12" r="3"/>
    <path d="M10 22c0-3.314 2.686-6 6-6s6 2.686 6 6"/>
    
    <!-- Secondary person -->
    <circle cx="24" cy="10" r="2"/>
    <path d="M20 18c0-2.209 1.791-4 4-4s4 1.791 4 4"/>
    
    <!-- Third person -->
    <circle cx="8" cy="10" r="2"/>
    <path d="M4 18c0-2.209 1.791-4 4-4s4 1.791 4 4"/>
  </g>
  
  <!-- Growth arrow -->
  <path d="M6 6l4 4m0-4l-4 4" stroke="white" stroke-width="1.5" stroke-linecap="round"/>
  <path d="M26 6l4 4m0-4l-4 4" stroke="white" stroke-width="1.5" stroke-linecap="round"/>
</svg>
